<svg width="14" height="15" viewBox="0 0 14 15" fill="none" xmlns="http://www.w3.org/2000/svg">
<path d="M11.5938 2.6875H2.40625C2.00027 2.68793 1.61104 2.8494 1.32397 3.13647C1.0369 3.42354 0.875434 3.81277 0.875 4.21875V10.7812C0.875434 11.1872 1.0369 11.5765 1.32397 11.8635C1.61104 12.1506 2.00027 12.3121 2.40625 12.3125H11.5938C11.9997 12.3121 12.389 12.1506 12.676 11.8635C12.9631 11.5765 13.1246 11.1872 13.125 10.7812V4.21875C13.1246 3.81277 12.9631 3.42354 12.676 3.13647C12.389 2.8494 11.9997 2.68793 11.5938 2.6875ZM11.206 5.22035L7.26852 8.28285C7.19173 8.34254 7.09725 8.37494 7 8.37494C6.90275 8.37494 6.80827 8.34254 6.73148 8.28285L2.79398 5.22035C2.74772 5.18542 2.70886 5.14163 2.67967 5.09155C2.65047 5.04147 2.63152 4.98608 2.62392 4.92861C2.61632 4.87114 2.62021 4.81273 2.63537 4.75678C2.65054 4.70083 2.67667 4.64844 2.71225 4.60268C2.74784 4.55691 2.79216 4.51868 2.84265 4.49019C2.89314 4.4617 2.94879 4.44353 3.00636 4.43674C3.06393 4.42994 3.12228 4.43466 3.17801 4.45061C3.23375 4.46656 3.28576 4.49342 3.33102 4.52965L7 7.38324L10.669 4.52965C10.7607 4.46037 10.8761 4.42998 10.99 4.44506C11.104 4.46014 11.2075 4.51948 11.278 4.61024C11.3486 4.701 11.3806 4.81589 11.3671 4.93006C11.3536 5.04423 11.2958 5.14851 11.206 5.22035Z" fill="white"/>
</svg>
