<svg width="14" height="14" viewBox="0 0 14 14" fill="none" xmlns="http://www.w3.org/2000/svg">
<path d="M6.71923 0.0196648C5.04601 0.107498 3.46941 0.818946 2.23974 2.053C1.13744 3.16409 0.518215 4.39375 0.281066 5.96158C0.0790498 7.30542 0.351333 8.85568 1.01008 10.0897L1.18136 10.4191L0.592874 12.1889C0.267891 13.1639 0 13.972 0 13.9851C0 14.0203 0.0702665 14.0027 0.724623 13.827C1.24284 13.6909 1.7918 13.546 2.39345 13.3879C2.56473 13.344 2.97315 13.2342 3.30253 13.1463L3.90418 12.9882L4.1589 13.1156C5.98144 14.0247 8.35732 13.9983 10.2062 13.0453C10.9089 12.6808 11.3568 12.3514 11.9497 11.763C13.4077 10.3093 14.1192 8.41212 13.9655 6.38757C13.7283 3.30023 11.4842 0.757463 8.45394 0.147023C8.13335 0.0811481 7.18475 -0.0154686 7.02665 0.00209808C6.99152 0.00648975 6.85098 0.0152731 6.71923 0.0196648ZM4.82204 2.49217C5.19972 2.6854 6.07366 3.76575 6.19224 4.18735C6.26689 4.45963 6.20541 4.58699 5.85408 4.87245C5.37978 5.25452 5.2085 5.61024 5.3139 5.99671C5.3666 6.18555 5.48079 6.3173 6.53479 7.38008C7.17597 8.02565 7.77323 8.58779 7.85667 8.6317C8.26071 8.82933 8.69109 8.67562 9.1039 8.17936C9.4245 7.7929 9.53868 7.73141 9.81535 7.81046C10.0613 7.88073 10.8298 8.41651 11.168 8.75906C11.7521 9.34754 11.7433 9.6857 11.1241 10.2742C10.7288 10.6563 10.4917 10.8275 10.1623 10.9812C9.88123 11.113 9.82414 11.1218 9.37619 11.1218C8.69548 11.1262 8.29145 10.9768 7.55365 10.4498C7.053 10.0941 3.88662 6.92335 3.53528 6.42709C3.03024 5.72003 2.87654 5.29844 2.88093 4.64847C2.88093 4.13904 2.95559 3.87554 3.2103 3.48907C3.39036 3.22118 3.93053 2.64588 4.12816 2.51413C4.32139 2.38677 4.60246 2.37798 4.82204 2.49217Z" fill="#40C140"/>
</svg>
