<svg width="152" height="42" viewBox="0 0 152 42" fill="none" xmlns="http://www.w3.org/2000/svg">
<path d="M52.3254 21.2632C50.877 21.2632 49.812 21.1993 49.1305 21.0715C48.4489 20.9437 48.1081 20.7946 48.1081 20.6242L50.025 16.5027C50.5149 16.5879 51.5267 16.6731 53.0602 16.7583C54.5938 16.8222 56.5853 16.8542 59.0347 16.8542H61.5587C62.3042 16.8542 62.8047 16.7477 63.0603 16.5347C63.3159 16.3217 63.4437 16.0129 63.4437 15.6082V15.2887C63.4437 14.7775 63.3159 14.426 63.0603 14.2343C62.8047 14.0427 62.3042 13.9468 61.5587 13.9468H54.2423C52.0911 13.9468 50.5256 13.5528 49.5458 12.7647C48.566 11.9553 48.0761 10.6454 48.0761 8.83492V7.68475C48.0761 6.74757 48.2465 5.88494 48.5873 5.09686C48.9494 4.30878 49.5565 3.68044 50.4084 3.21186C51.2604 2.72197 52.4319 2.47702 53.9228 2.47702H64.53C65.8293 2.47702 66.9049 2.55157 67.7569 2.70067C68.6302 2.84976 69.0668 3.00951 69.0668 3.1799L68.1083 7.14161C67.5119 7.07771 66.3831 7.01382 64.7217 6.94992C63.0816 6.86472 60.9943 6.82212 58.4596 6.82212L56.1593 6.79017C55.499 6.79017 55.0304 6.88602 54.7535 7.07771C54.4766 7.24811 54.3275 7.57825 54.3062 8.06814V8.29179C54.3062 8.78167 54.4553 9.12247 54.7535 9.31416C55.0517 9.50586 55.531 9.60171 56.1912 9.60171H63.2201C64.5833 9.60171 65.7441 9.74015 66.7025 10.017C67.661 10.2939 68.3959 10.8051 68.907 11.5506C69.4182 12.2748 69.6738 13.3504 69.6738 14.7775V15.9277C69.6738 17.5251 69.2585 18.8137 68.4278 19.7935C67.6184 20.7733 66.202 21.2632 64.1786 21.2632H52.3254ZM74.463 21.2632V5.03296L74.1435 2.47702H80.0221L89.0318 11.6145L90.2779 13.0203H90.6293V2.47702H96.7636V21.2632H91.428L82.1627 12.0298L80.9167 10.5282H80.5972V21.2632H74.463ZM99.5803 21.2632L108.941 2.47702H117.248L126.577 21.2632H119.708L118.143 17.8446H108.047L106.29 21.2632H99.5803ZM109.804 13.4356H116.354L113.255 6.63042H112.935L109.804 13.4356ZM129.719 21.2632V5.03296L129.399 2.44507H144.192C145.619 2.44507 146.759 2.60482 147.611 2.92431C148.484 3.22251 149.133 3.63785 149.559 4.17033C150.007 4.68152 150.294 5.28856 150.422 5.99144C150.571 6.67302 150.646 7.39721 150.646 8.16399V10.688C150.646 11.7104 150.475 12.6582 150.135 13.5315C149.815 14.3834 149.208 15.0757 148.313 15.6082C147.44 16.1194 146.173 16.3749 144.511 16.3749H142.307C140.965 16.3749 139.708 16.343 138.537 16.2791C137.387 16.2152 136.524 16.162 135.949 16.1194V21.2632H129.719ZM135.949 12.0298H142.563C143.265 12.0298 143.755 11.8914 144.032 11.6145C144.309 11.3376 144.448 10.8903 144.448 10.2726V8.64323C144.448 8.02554 144.32 7.57825 144.064 7.30136C143.809 7.00317 143.319 6.85407 142.595 6.85407H135.949V12.0298Z" fill="white"/>
<path d="M50.7161 39.7346C49.6401 39.7346 48.849 39.6872 48.3427 39.5922C47.8364 39.4973 47.5832 39.3865 47.5832 39.2599L48.5326 37.1951C48.8965 37.2584 49.7984 37.3217 51.2382 37.385C52.6939 37.4324 54.6875 37.4562 57.2191 37.4562H57.67C58.3504 37.4562 58.833 37.3375 59.1178 37.1002C59.4026 36.847 59.545 36.4277 59.545 35.8423V35.3676C59.545 34.8138 59.4263 34.4183 59.189 34.1809C58.9675 33.9436 58.4612 33.8249 57.67 33.8249H52.1638C50.5657 33.8249 49.4028 33.5322 48.675 32.9468C47.9471 32.3455 47.5832 31.3724 47.5832 30.0275V29.6478C47.5832 28.9516 47.7098 28.3108 47.9629 27.7253C48.2319 27.1399 48.6829 26.6732 49.3158 26.3251C49.9487 25.9611 50.8189 25.7792 51.9265 25.7792H58.3821C59.458 25.7792 60.3282 25.8346 60.9928 25.9453C61.6573 26.0561 61.9896 26.1747 61.9896 26.3013L61.5149 28.295C61.1035 28.2475 60.17 28.2 58.7143 28.1526C57.2587 28.0893 55.3046 28.0576 52.8521 28.0576L52.591 28.0339C51.8632 28.0339 51.3727 28.1842 51.1195 28.4848C50.8664 28.7696 50.7319 29.1336 50.7161 29.5766V29.9801C50.7161 30.5022 50.8585 30.8978 51.1433 31.1667C51.4439 31.4199 51.9344 31.5465 52.6148 31.5465H57.8836C58.8963 31.5465 59.7586 31.6493 60.4706 31.855C61.1826 32.0607 61.7285 32.4405 62.1082 32.9942C62.488 33.5322 62.6779 34.3312 62.6779 35.3913V35.7711C62.6779 36.9578 62.3693 37.915 61.7522 38.6429C61.151 39.3707 60.0988 39.7346 58.5957 39.7346H50.7161ZM69.4386 39.7346L64.3359 25.8029H67.6586L71.0051 34.9167L71.5509 37.2188H71.7883L72.0968 35.6049L75.2534 25.8029H79.2881L82.5871 35.6049L83.0143 37.2188H83.2517L83.7975 34.9167L86.9067 25.8029H90.2294L89.992 27.2269L85.1029 39.7346H81.0682L77.8404 30.4073L77.3657 28.8883H77.1284L76.6774 30.4073L73.4734 39.7346H69.4386ZM92.3732 39.7346V25.7792H95.5061V39.7346H92.3732ZM104.074 39.7346L104.05 28.0339H97.8792V25.7554H113.401V28.0339H107.207V39.7346H104.074ZM119.888 39.7346C118.765 39.7346 117.887 39.5764 117.254 39.2599C116.621 38.9435 116.178 38.4688 115.925 37.8359C115.672 37.203 115.545 36.4198 115.545 35.4863V30.1937C115.545 28.6747 115.885 27.5592 116.566 26.8472C117.246 26.1194 118.354 25.7554 119.888 25.7554H127.032C128.124 25.7554 128.955 25.8187 129.524 25.9453C130.11 26.0561 130.402 26.1747 130.402 26.3013L129.928 28.2712C129.659 28.2238 128.86 28.1763 127.531 28.1288C126.217 28.0655 124.303 28.0339 121.787 28.0339H120.577C119.311 28.0339 118.678 28.5956 118.678 29.719V35.7711C118.678 36.3091 118.812 36.7283 119.081 37.029C119.366 37.3138 119.865 37.4562 120.577 37.4562H121.55C124.176 37.4562 126.209 37.4324 127.649 37.385C129.105 37.3217 130.007 37.2584 130.355 37.1951L131.328 38.7615C131.328 38.8406 131.194 38.9593 130.925 39.1175C130.671 39.2758 130.197 39.4182 129.501 39.5447C128.804 39.6713 127.8 39.7346 126.486 39.7346H119.888ZM133.699 39.7346V25.7792H136.831V31.5702H146.135V25.7792H149.268V39.7346H146.135V33.8487H136.831V39.7346H133.699Z" fill="white"/>
<rect x="0.000244141" y="40.9963" width="39.4978" height="15.8712" rx="7.93562" transform="rotate(-90 0.000244141 40.9963)" fill="#00AA4E"/>
<rect x="2.52661" y="14.8445" width="10.8213" height="10.8213" rx="5.41065" transform="rotate(-90 2.52661 14.8445)" fill="white"/>
<rect x="35.3496" y="1.49854" width="39.4978" height="15.8712" rx="7.93562" transform="rotate(90 35.3496 1.49854)" fill="white"/>
<rect x="32.8257" y="27.6497" width="10.8213" height="10.8213" rx="5.41065" transform="rotate(90 32.8257 27.6497)" fill="#000648"/>
</svg>
