<svg width="14" height="15" viewBox="0 0 14 15" fill="none" xmlns="http://www.w3.org/2000/svg">
<path d="M4.60103 0.0521202C2.44293 0.325992 0.717542 1.82681 0.14789 3.92466C0.00547742 4.45049 0.00547742 4.47788 0 6.37306V8.29016L0.153368 8.82695C0.416284 9.77454 0.925684 10.64 1.60488 11.2863C1.92257 11.5876 2.6675 12.1134 2.87565 12.1791C2.97972 12.212 2.98519 12.2722 2.98519 13.5485C2.98519 14.8138 2.99067 14.8905 3.08926 14.9452C3.14952 14.9726 3.22072 15 3.24811 15C3.2755 15 3.79585 14.4961 4.40932 13.8771L5.52672 12.7543H6.98371C8.5393 12.7543 9.18563 12.6885 9.83197 12.4749C11.6888 11.8614 13.0363 10.2949 13.3704 8.35589C13.4416 7.95056 13.4525 7.53428 13.4361 6.12658C13.4142 4.5929 13.3978 4.35737 13.2937 3.98491C13.0253 2.99349 12.5214 2.13354 11.8312 1.47625C10.9548 0.643682 9.96343 0.189056 8.72553 0.0466433C8.16683 -0.0190859 5.12687 -0.013608 4.60103 0.0521202ZM8.26543 2.16093C9.76624 2.52792 10.8727 3.93561 10.8782 5.4912C10.8836 6.29638 10.796 6.56477 10.544 6.56477C10.3523 6.56477 10.3633 6.61955 10.3578 5.71577C10.3523 5.12421 10.3304 4.94346 10.2263 4.63672C9.90318 3.70008 9.15825 2.98802 8.1997 2.69771C8.05729 2.65937 7.72316 2.6046 7.46025 2.58817C7.01657 2.5553 6.97276 2.53887 6.92346 2.42384C6.85773 2.24309 6.9125 2.13354 7.08778 2.0952C7.16447 2.07877 7.25758 2.05686 7.28497 2.0459C7.37808 2.01304 7.92035 2.07877 8.26543 2.16093ZM4.94063 3.39335C5.19807 3.64531 5.52672 3.99586 5.67461 4.17114C5.91561 4.45597 5.943 4.51622 5.943 4.75722C5.943 5.08587 5.77868 5.29949 5.38978 5.50215C4.90229 5.74864 4.83108 6.13753 5.15425 6.78387C5.57054 7.61096 6.70436 8.49283 7.24115 8.41066C7.5205 8.36137 7.6903 8.22443 7.88201 7.89031C8.12301 7.47402 8.52287 7.32613 8.89533 7.52332C8.98297 7.56714 9.339 7.90674 9.68956 8.27373C10.3578 8.98579 10.429 9.11177 10.3523 9.50067C10.3085 9.7362 9.54714 10.5633 9.20207 10.744C8.86247 10.9193 8.29281 10.8974 7.70125 10.6783C6.69888 10.3113 5.88823 9.74715 4.81465 8.67906C3.69726 7.56166 2.97972 6.48809 2.66203 5.44738C2.51414 4.95989 2.50866 4.39024 2.65107 4.11089C2.76062 3.90822 3.65344 2.98802 3.80681 2.92777C3.85063 2.91133 4.02043 2.90586 4.17927 2.91681C4.4641 2.93324 4.48053 2.9442 4.94063 3.39335ZM8.42427 3.29475C9.32805 3.72199 9.88674 4.58195 9.88674 5.56241C9.88674 5.86366 9.87031 5.91296 9.75529 5.98964C9.65121 6.06085 9.59644 6.06633 9.5088 6.01703C9.44307 5.98417 9.39377 5.94035 9.39377 5.91844C9.36639 5.16803 9.34996 5.09135 9.20207 4.76818C8.88438 4.06159 8.18874 3.60697 7.37808 3.58506C6.96728 3.5741 6.87416 3.52481 6.87416 3.32214C6.87416 3.27284 6.91798 3.19068 6.96728 3.14139C7.04396 3.0647 7.14256 3.04827 7.53145 3.07018C7.93678 3.08661 8.06276 3.11948 8.42427 3.29475ZM8.01347 4.20948C8.46261 4.40667 8.73648 4.76818 8.85151 5.29401C8.90629 5.55145 8.90081 5.60075 8.81317 5.69386C8.76387 5.74864 8.68171 5.79793 8.63789 5.79793C8.50643 5.79793 8.35307 5.62813 8.35307 5.48572C8.35307 5.09135 7.96965 4.68054 7.54788 4.61481C7.1316 4.56004 6.98371 4.36285 7.18638 4.13828C7.30688 4.0123 7.62457 4.03968 8.01347 4.20948Z" fill="#5837AB"/>
</svg>
