<svg width="14" height="15" viewBox="0 0 14 15" fill="none" xmlns="http://www.w3.org/2000/svg">
<path d="M13.6981 11.915L11.5472 9.76411C10.9435 9.16034 9.96455 9.16034 9.36076 9.76411L9.02425 10.1006C8.75344 10.3708 8.56527 10.7126 8.48179 11.0859C7.75273 11.0995 6.92824 10.9755 6.22304 10.518C5.78989 10.196 5.38087 9.84283 4.99923 9.4612C4.67684 9.139 4.37455 8.7973 4.09407 8.43802C3.54448 7.69964 3.39944 6.80356 3.41411 6.01821C3.78742 5.93474 4.12919 5.74657 4.39935 5.47575L4.73586 5.13923C5.33963 4.53547 5.33963 3.55657 4.73586 2.95278L2.58497 0.801889C2.18245 0.39937 1.52985 0.39937 1.12736 0.801889L0.75808 1.17125C0.284686 1.64464 0.0423533 2.26121 0.0297525 2.88159C-0.0914703 4.19052 0.159215 5.63143 0.754739 7.04858C1.14794 7.98427 1.68779 8.89791 2.34527 9.74712C2.35357 9.75822 2.36144 9.76946 2.36985 9.78053L2.37082 9.77979C2.7065 10.2104 3.06842 10.6199 3.45451 11.006C3.85355 11.4053 4.27751 11.7789 4.72386 12.1246L4.71955 12.1303C4.79391 12.1867 4.86976 12.2411 4.94702 12.2934C6.8233 13.6812 8.944 14.4609 10.9175 14.4608C11.0327 14.4608 11.1476 14.4575 11.2619 14.4521C11.997 14.5425 12.7645 14.3062 13.3288 13.742L13.6981 13.3726C14.1006 12.9701 14.1006 12.3175 13.6981 11.915Z" fill="white"/>
</svg>
